<svg width="22" height="21" viewBox="0 0 22 21" fill="none" xmlns="http://www.w3.org/2000/svg">
<path d="M5.50164 20.7306H1.31534V7.24939H5.50164V20.7306ZM3.40596 5.41045C2.0675 5.41045 0.981445 4.30131 0.981445 2.96285C0.981445 2.31983 1.23689 1.70314 1.69157 1.24846C2.14626 0.79377 2.76294 0.53833 3.40596 0.53833C4.04899 0.53833 4.66567 0.79377 5.12036 1.24846C5.57504 1.70314 5.83048 2.31983 5.83048 2.96285C5.83048 4.30131 4.74443 5.41045 3.40596 5.41045ZM21.1694 20.7306H16.9925V14.1681C16.9925 12.604 16.9608 10.5984 14.8161 10.5984C12.6396 10.5984 12.3057 12.2975 12.3057 14.0556V20.7306H8.12375V7.24939H12.1384V9.08833H12.1968C12.7557 8.02895 14.1209 6.91117 16.1574 6.91117C20.3942 6.91117 21.173 9.70131 21.173 13.3251V20.7306H21.1694Z" fill="#3BBA9C"/>
</svg>
