<svg width="38" height="28" viewBox="0 0 38 28" fill="none" xmlns="http://www.w3.org/2000/svg">
<path d="M15.9214 27.896C15.7035 27.896 15.4746 27.8742 15.2458 27.8088C13.7531 27.4384 12.8378 25.9239 13.2083 24.4311L18.787 2.11631C19.1683 0.623575 20.6829 -0.280782 22.1756 0.0787816C23.6684 0.460136 24.5727 1.97467 24.2023 3.46741L18.6236 25.7822C18.3076 27.0461 17.1744 27.896 15.9214 27.896Z" fill="#3BBA9C"/>
<path d="M29.0423 22.3174C28.3232 22.3174 27.6149 22.045 27.0701 21.5002C25.9805 20.4106 25.9805 18.6455 27.0701 17.5559L30.6767 13.9494L27.0701 10.3428C25.9805 9.25322 25.9805 7.48808 27.0701 6.39849C28.1597 5.3089 29.9248 5.3089 31.0144 6.39849L36.5931 11.9772C37.6827 13.0668 37.6827 14.8319 36.5931 15.9215L31.0144 21.5002C30.4696 22.045 29.7614 22.3174 29.0423 22.3174Z" fill="#3BBA9C"/>
<path d="M8.36805 22.3174C7.64892 22.3174 6.94069 22.045 6.39589 21.5002L0.817192 15.9215C-0.272397 14.8319 -0.272397 13.0668 0.817192 11.9772L6.39589 6.39849C7.48548 5.3089 9.25062 5.3089 10.3402 6.39849C11.4298 7.48808 11.4298 9.25322 10.3402 10.3428L6.73366 13.9494L10.3402 17.5559C11.4298 18.6455 11.4298 20.4106 10.3402 21.5002C9.79541 22.045 9.08718 22.3174 8.36805 22.3174Z" fill="#3BBA9C"/>
</svg>
