<svg width="25" height="25" viewBox="0 0 25 25" fill="none" xmlns="http://www.w3.org/2000/svg">
<g clip-path="url(#clip0_37_177)">
<path d="M23.367 12.5843C21.0546 8.41924 16.9994 5.8988 12.5119 5.8988C8.02447 5.8988 3.96241 8.41924 1.67064 12.5843L1.47852 12.8985L1.65692 13.2194C3.96927 17.3845 8.02447 19.9049 12.5119 19.9049C16.9994 19.9049 21.0615 17.4179 23.367 13.2194L23.5454 12.8985L23.367 12.5843ZM12.5119 18.5344C8.64887 18.5344 5.10143 16.4352 3.04296 12.8985C5.10143 9.36189 8.64887 7.26265 12.5119 7.26265C16.375 7.26265 19.8813 9.36858 21.9741 12.8985C19.8813 16.4352 16.3682 18.5344 12.5119 18.5344Z" fill="#3BBA9C"/>
<path d="M12.7113 8.3324C11.7809 8.33901 10.8734 8.61411 10.1035 9.12295C9.33349 9.63178 8.73555 10.3515 8.38516 11.1913C8.03476 12.031 7.94764 12.9531 8.13479 13.8411C8.32195 14.7291 8.77498 15.5431 9.43667 16.1803C10.0984 16.8176 10.939 17.2495 11.8525 17.4215C12.766 17.5935 13.7113 17.4979 14.569 17.1467C15.4268 16.7955 16.1584 16.2046 16.6717 15.4485C17.1849 14.6924 17.4567 13.8051 17.4526 12.8986C17.4499 12.2952 17.3251 11.6982 17.0852 11.1419C16.8452 10.5856 16.495 10.0809 16.0546 9.65673C15.6141 9.23254 15.0921 8.89722 14.5184 8.66996C13.9447 8.44271 13.3306 8.32799 12.7113 8.3324ZM12.7113 16.1678C12.0541 16.1612 11.4136 15.9656 10.8702 15.6054C10.3268 15.2453 9.90468 14.7368 9.65693 14.1437C9.40919 13.5506 9.34683 12.8994 9.47769 12.2719C9.60855 11.6443 9.92679 11.0685 10.3925 10.6166C10.8581 10.1648 11.4504 9.85706 12.095 9.73212C12.7396 9.60718 13.4076 9.67059 14.0153 9.9144C14.623 10.1582 15.1432 10.5715 15.5106 11.1025C15.878 11.6334 16.0762 12.2583 16.0803 12.8986C16.0821 13.3295 15.9961 13.7566 15.8273 14.1549C15.6585 14.5532 15.4102 14.9149 15.0968 15.219C14.7834 15.5231 14.4112 15.7636 14.0017 15.9264C13.5922 16.0893 13.1536 16.1713 12.7113 16.1678Z" fill="#3BBA9C"/>
</g>
<defs>
<clipPath id="clip0_37_177">
<rect width="24.7017" height="24.0678" fill="white" transform="translate(0.29834 0.864624)"/>
</clipPath>
</defs>
</svg>
