<svg width="51" height="59" viewBox="0 0 51 59" fill="none" xmlns="http://www.w3.org/2000/svg">
<path d="M25.8584 35.1531C24.8513 35.6159 23.7479 36.2189 21.539 37.4311C20.7015 37.9022 19.8263 38.3733 19.0119 38.8172C18.9553 38.7607 18.8967 38.6895 18.8402 38.6309C14.4705 33.9618 6.38864 30.6641 6.73201 24.3934C6.85973 22.1091 7.64489 16.1126 22.253 8.83052C34.2753 2.90521 43.8416 4.54671 45.4936 8.18774C47.8679 13.3781 40.366 23.0366 27.9501 24.4373C26.5759 24.7161 25.1567 24.6824 23.7973 24.3388C22.4379 23.9953 21.1731 23.3506 20.0964 22.4525C19.439 21.7385 19.3406 21.6966 19.0977 21.839C18.6978 22.0484 18.9553 22.6953 19.0977 23.0659C19.5713 23.9234 20.212 24.6772 20.982 25.2828C21.7519 25.8885 22.6355 26.3335 23.5804 26.5918C28.4664 27.6479 33.5607 27.1433 38.1445 25.1492C45.6695 22.2368 51.5445 14.1403 49.8235 7.35233C48.0961 0.470175 36.6726 -1.79945 25.8647 2.04049C19.0962 4.32141 12.8427 7.91201 7.46064 12.6076C1.50602 18.177 0.563829 23.0178 0.949079 25.0445C2.33514 32.2407 12.2553 36.9245 16.2335 40.3938C16.0241 40.509 15.8482 40.6032 15.6912 40.6932C13.7063 41.6794 6.13948 45.6345 4.25302 49.8178C2.11111 54.558 4.59639 57.9562 6.23789 58.4126C8.71163 59.0052 11.3087 58.8104 13.6663 57.8554C16.024 56.9005 18.0246 55.2331 19.3887 53.0861C20.5472 51.3057 21.2585 49.2719 21.4623 47.1577C21.666 45.0434 21.3562 42.9112 20.5591 40.9424C21.0294 40.5673 21.531 40.2331 22.0583 39.9436C23.0716 39.3448 24.0369 38.7544 24.8932 38.298C27.8252 36.9246 31.025 36.2174 34.2627 36.2272C41.059 37.0271 42.4011 41.2669 42.1436 43.0529C42.0231 43.6865 41.7683 44.287 41.3963 44.8139C41.0243 45.3409 40.5438 45.782 39.987 46.1076C39.5159 46.4071 39.3589 46.5076 39.4008 46.7211C39.4573 47.0352 39.6855 47.0205 40.0854 46.964C41.1066 46.6413 42.0062 46.0172 42.6661 45.1738C43.326 44.3304 43.7154 43.3071 43.783 42.2384C43.9924 38.0509 39.9996 33.4572 32.9311 33.4991C30.8146 33.5027 28.7192 33.9202 26.7629 34.7281C26.4489 34.8579 26.1439 34.9975 25.848 35.1469L25.8584 35.1531ZM15.7561 51.5661C13.499 54.022 10.3584 54.9496 9.00164 54.1644C7.53601 53.3269 8.11598 49.6942 10.886 47.0959C12.5266 45.6177 14.2998 44.2938 16.1832 43.1408C16.5119 42.9314 16.9977 42.6551 17.5818 42.3033L17.7389 42.2175L18.0822 42.0081C18.5763 43.6645 18.6212 45.4224 18.2125 47.1018C17.8037 48.7813 16.956 50.3219 15.7561 51.5661Z" fill="#3BBA9C"/>
</svg>
