<svg width="26" height="25" viewBox="0 0 26 25" fill="none" xmlns="http://www.w3.org/2000/svg">
<g clip-path="url(#clip0_5135_1113)">
<path d="M24.3223 12.5844C21.9477 8.41936 17.7834 5.89893 13.1751 5.89893C8.56686 5.89893 4.39547 8.41936 2.04202 12.5844L1.84473 12.8986L2.02793 13.2195C4.40252 17.3846 8.56686 19.905 13.1751 19.905C17.7834 19.905 21.9547 17.418 24.3223 13.2195L24.5055 12.8986L24.3223 12.5844ZM13.1751 18.5345C9.20807 18.5345 5.56515 16.4353 3.45127 12.8986C5.56515 9.36201 9.20807 7.26277 13.1751 7.26277C17.1422 7.26277 20.7428 9.3687 22.8919 12.8986C20.7428 16.4353 17.1351 18.5345 13.1751 18.5345V18.5345Z" fill="black"/>
<path d="M13.3795 8.33252C12.4241 8.33914 11.4922 8.61423 10.7015 9.12307C9.91083 9.6319 9.29679 10.3516 8.93696 11.1914C8.57714 12.0312 8.48767 12.9532 8.67986 13.8412C8.87205 14.7292 9.33728 15.5432 10.0168 16.1804C10.6963 16.8177 11.5596 17.2496 12.4976 17.4216C13.4357 17.5936 14.4064 17.498 15.2873 17.1468C16.1681 16.7957 16.9195 16.2047 17.4465 15.4486C17.9736 14.6925 18.2526 13.8052 18.2485 12.8987C18.2457 12.2953 18.1175 11.6983 17.8711 11.142C17.6248 10.5857 17.2651 10.081 16.8128 9.65685C16.3605 9.23267 15.8244 8.89734 15.2352 8.67008C14.6461 8.44283 14.0155 8.32812 13.3795 8.33252V8.33252ZM13.3795 16.1679C12.7047 16.1613 12.0469 15.9657 11.4889 15.6055C10.9308 15.2454 10.4974 14.7369 10.243 14.1438C9.98856 13.5507 9.92452 12.8995 10.0589 12.272C10.1933 11.6445 10.5201 11.0686 10.9983 10.6168C11.4765 10.1649 12.0847 9.85718 12.7466 9.73224C13.4086 9.6073 14.0946 9.67072 14.7187 9.91452C15.3427 10.1583 15.8769 10.5717 16.2542 11.1026C16.6315 11.6335 16.835 12.2584 16.8392 12.8987C16.8411 13.3297 16.7528 13.7567 16.5794 14.155C16.406 14.5533 16.1511 14.915 15.8292 15.2191C15.5074 15.5232 15.1251 15.7637 14.7046 15.9266C14.2841 16.0894 13.8337 16.1715 13.3795 16.1679V16.1679Z" fill="black"/>
</g>
<defs>
<clipPath id="clip0_5135_1113">
<rect width="25.3665" height="24.0678" fill="white" transform="translate(0.632812 0.864746)"/>
</clipPath>
</defs>
</svg>
